<?xml version="1.0" encoding="UTF-8" standalone="no"?>
<!DOCTYPE svg PUBLIC "-//W3C//DTD SVG 1.1//EN" "http://www.w3.org/Graphics/SVG/1.1/DTD/svg11.dtd">
<svg width="100%" height="100%" viewBox="0 0 455 425" version="1.1" xmlns="http://www.w3.org/2000/svg" xmlns:xlink="http://www.w3.org/1999/xlink" xml:space="preserve" xmlns:serif="http://www.serif.com/" style="fill-rule:evenodd;clip-rule:evenodd;stroke-linejoin:round;stroke-miterlimit:2;">
    <g transform="matrix(1,0,0,1,-476.772549,-171.948359)">
        <g transform="matrix(1,0,0,1,475,170)">
            <path d="M176.302,360.456C175.582,358.065 175.291,358.266 173.784,356.254C162.234,340.845 149.371,330.452 141.264,322.776C138.105,319.784 96.019,300.5 95.716,300.253C92.002,297.224 64.567,290.976 61.511,290.977C55.829,290.977 56.141,288.996 50.504,288.959C43.747,288.916 44.909,286.262 44.906,279.5C44.899,262.944 44.819,73.234 44.835,72.552C44.905,69.512 67.128,75.938 68.506,77.495C69.704,78.848 68.646,264.734 69.072,266.608C69.861,270.071 117.622,273.642 166.287,312.745C168.466,314.495 188.299,335.391 188.683,336.409C190.645,341.607 200.449,352.99 204.657,361.402C207.966,368.015 207.979,357.277 208.267,356.398C208.651,355.227 210.505,349.568 212.025,341.452C216.221,319.032 217.652,319.397 218.011,317.451C219.075,311.682 219.504,311.91 221.331,306.431C236.212,261.818 249.891,238.195 257.707,222.608C268.787,200.512 293.358,163.6 296.679,158.61C311.688,136.063 312.474,136.631 313.666,134.603C317.449,128.172 319.1,127.589 319.674,126.606C323.585,119.923 327.341,117.262 327.681,116.609C330.4,111.388 335.175,106.547 342.233,99.273C343.705,97.755 343.18,96.2 347.709,91.713C351.036,88.417 350.736,88.228 353.745,84.71C356.776,81.165 356.839,81.309 359.732,77.7C360.466,76.784 379.382,58.668 379.485,58.491C383.711,51.246 371.801,63.874 364.39,68.317C362.206,69.626 345.033,85.473 344.755,85.756C338.775,91.854 338.785,91.783 332.794,97.791C310.707,119.944 311.205,120.362 309.279,122.278C305.996,125.543 306.288,125.721 303.237,129.274C292.588,141.671 291.851,141.093 291.339,142.416C289.315,147.657 287.923,146.702 286.318,149.389C279.834,160.242 278.875,159.453 278.319,160.388C274.394,166.992 273.002,167.243 272.318,168.387C254.386,198.366 250.729,196.339 220.722,260.621C216.416,269.845 215.264,241.994 213.651,237.432C212.507,234.193 212.585,234.116 212.925,194.497C212.94,192.775 213.963,190.905 214.006,190.459C214.554,184.765 214.963,184.945 215.008,184.461C216.803,165.147 232.201,132.133 233.339,130.401C237.547,123.997 242.888,114.971 243.691,113.613C249.462,103.859 250.318,104.492 250.651,103.573C252.767,97.723 255.629,97.503 262.289,90.126C265.071,87.045 263.583,97.413 264.329,99.574C265.303,102.399 266.101,114.674 268.679,122.427C270.518,127.961 270.52,127.948 270.678,128.428C277.09,147.835 274.364,123.312 276.303,117.419C277.898,112.57 276.434,108.918 277.263,106.397C281.688,92.957 280.539,66.645 310.271,44.23C327.175,31.485 339.78,27.085 343.404,25.305C360.791,16.769 374.629,13.254 377.426,12.318C394.28,6.678 404.498,6.068 408.563,4.644C411.998,3.44 421.881,3.554 425.403,2.276C426.963,1.71 439.259,2.037 439.602,2.096C443.139,2.709 439.823,32.211 439.699,32.584C438.266,36.875 439.258,38.593 438.947,40.553C438.287,44.709 437.509,44.437 436.99,48.543C435.811,57.881 435.059,57.728 434.985,58.541C434.518,63.683 433.611,63.451 432.998,68.541C432.899,69.359 432.436,73.202 430.69,78.577C419.833,112 415.608,117.421 406.686,132.611C406.233,133.383 390.346,149.241 389.607,149.677C382.084,154.121 382.27,154.316 381.601,154.665C349.424,171.437 314.493,180.51 313.644,181.603C312.245,183.403 317.166,183.108 317.495,183.089C326.811,182.53 353.268,183.445 361.461,182.007C362.031,181.906 368.152,180.832 368.575,180.678C369.016,180.518 377.528,177.423 373.661,183.598C359.449,206.291 357.574,204.766 338.732,223.734C323.327,239.242 290.6,253.845 283.417,256.298C276.365,258.705 259.576,275.277 258.318,277.39C257.074,279.478 251.07,288.286 249.303,292.417C236.973,321.251 237.217,329.132 236.706,330.585C236.275,331.812 234.687,336.328 233.071,346.436C229.524,368.62 230.37,368.752 229.707,370.586C227.96,375.424 229.712,375.802 228.71,378.588C226.972,383.424 228.702,389.91 227.72,392.596C226.128,396.95 227.366,409.797 227.069,415.467C227.065,415.553 222.697,425.491 217.552,425.916C206.561,426.823 205.862,423.296 197.249,414.751C177.761,395.415 178.795,394.217 176.581,393.343C173.417,392.094 171.912,391.658 160.27,380.778C158.822,379.425 158.262,380.551 156.743,379.218C148.541,372.019 119.689,356.892 111.579,353.311C98.005,347.318 68.917,339.112 68.557,339.077C65.145,338.749 41.552,333.963 40.501,333.953C39.693,333.945 36.442,333.912 30.448,332.912C10.892,329.651 2.41,334.959 2.076,329.566C1.499,320.26 1.915,127.111 1.953,109.506C1.96,106.273 3.315,107.05 6.498,107.049C19.946,107.048 25.75,106.334 25.931,108.389C26.034,109.571 26.071,303.269 26.047,305.501C25.981,311.663 32.223,308.036 35.601,309.271C37.97,310.137 50.421,310.845 51.599,311.272C58.586,313.804 62.245,312.662 63.605,313.264C64.581,313.696 69.551,315.894 76.438,316.933C81.128,317.64 86.568,319.801 87.44,319.929C91.95,320.592 122.034,332.103 131.395,336.709C155.748,348.693 172.295,362.12 175.26,362.251C175.494,362.572 179.034,363.079 176.302,360.456Z" style="fill:rgb(220,167,18);"/>
            <path d="M288.267,296.734C280.246,288.721 275.025,284.62 276.802,282.746C289.825,269.013 295.717,271.786 313.616,261.691C343.175,245.021 353.162,233.321 370.281,216.286C372.343,214.234 372.58,210.774 375.712,213.222C381.427,217.687 381.348,217.742 414.747,251.252C454.742,291.38 458.199,292.797 455.667,300.566C452.094,311.533 435.63,321.975 432.756,325.724C429.823,329.55 429.944,329.677 396.745,362.742C381.459,377.966 377.178,385.645 360.697,369.3C360.175,368.782 360.218,368.77 354.238,362.756C347.373,355.853 351.248,359.753 351.248,359.753C344.703,353.221 344.739,353.274 338.248,346.752C334.056,342.541 335.251,343.75 335.251,343.75C328.737,337.254 328.765,337.308 322.253,330.746C322.576,330.523 319.256,327.745 319.256,327.745C312.715,321.226 312.769,321.312 306.256,314.739C306.355,314.598 303.265,311.736 303.265,311.736C302.224,310.696 292.849,301.117 290.27,298.728C286.997,295.697 292.69,300.697 288.267,296.734Z" style="fill:rgb(64,30,92);"/>
            <path d="M181.208,118.794C163.805,101.436 162.185,99.46 145.606,88.328C131.973,79.174 114.254,70.745 113.433,71.419C112.845,71.902 113.064,72.047 113.033,199.5C113.026,230.573 112.503,231.691 115.418,232.692C141.445,241.631 144.074,243.241 169.603,258.333C173.067,260.381 182.726,266.091 207.228,291.726C207.67,292.189 208.351,292.901 205.678,299.575C199.056,316.108 200.702,322.822 197.943,318.213C195.358,313.896 181.227,299.83 179.696,298.306C172.18,290.825 171.925,291.184 164.272,283.77C161.851,281.425 161.203,282.425 158.741,280.221C147.389,270.055 112.807,255.584 109.448,254.987C103.279,253.889 98.987,251.447 96.453,250.989C86.773,249.237 88.964,246.175 88.952,242.5C88.95,241.98 88.95,87.871 88.957,87.5C89.551,56.097 87.662,38.555 90.547,37.985C93.052,37.489 106.249,42.792 107.573,43.324C164.254,66.102 184.411,86.987 201.735,104.264C205.024,107.544 204.782,107.685 207.772,111.268C209.09,112.847 218.355,121.177 216.274,125.389C207.036,144.081 207.269,150.195 203.767,145.264C192.696,129.679 189.952,127.49 181.208,118.794Z" style="fill:rgb(219,166,18);"/>
            <path d="M343.431,274.4C358.842,265.756 362.821,275.828 367.451,280.56C369.771,282.931 369.533,280.232 371.606,277.58C385.401,259.941 413.656,282.108 393.142,303.135C370.237,326.614 368.806,327.06 366.813,325.17C339.188,298.984 335.757,295.701 337.094,284.435C337.774,281.037 339.537,276.584 343.431,274.4Z" style="fill:rgb(221,168,23);"/>
            <path d="M306.718,339.286C314.123,346.689 319.962,351.862 319.118,353.021C318.512,353.852 318.025,353.028 307.389,358.284C295.687,364.067 295.748,363.973 284.598,370.66C268.559,380.28 269.026,380.899 259.252,388.218C245.024,398.871 242.953,403.926 242.849,400.441C242.7,395.408 243.963,379.647 244.683,377.578C246.493,372.373 243.307,370.085 253.409,363.351C263.582,356.571 263.113,356.009 273.618,349.692C274.612,349.094 274.415,348.926 275.401,348.337C276.96,347.408 277.031,347.656 278.609,346.715C286.588,342.229 289.587,341.063 290.588,340.674C291.421,340.351 291.261,340.277 300.605,335.719C303.939,334.093 303.541,336.323 306.718,339.286Z" style="fill:rgb(63,29,90);"/>
        </g>
    </g>
</svg>
